STARTFONT 2.1
FONT -ucw.cz-Haxor-Medium-R-Normal--12-120-72-72-C-72-iso8859-2
SIZE 11 72 72
FONTBOUNDINGBOX 7 13 0 -3
STARTPROPERTIES 16
POINT_SIZE 120
PIXEL_SIZE 12
RESOLUTION_X 72
RESOLUTION_Y 72
FONT_ASCENT 10
FONT_DESCENT 3
AVERAGE_WIDTH 72
SPACING "C"
_GBDFED_INFO "Edited with gbdfed 1.4."
CHARSET_ENCODING "2"
CHARSET_REGISTRY "iso8859"
FAMILY_NAME "Haxor"
FOUNDRY "ucw.cz"
SETWIDTH_NAME "Normal"
SLANT "R"
WEIGHT_NAME "Medium"
ENDPROPERTIES
CHARS 199
STARTCHAR char0
ENCODING 0
SWIDTH 636 0
DWIDTH 7 0
BBX 7 13 0 -3
BITMAP
FE
FE
FE
FE
FE
FE
FE
FE
FE
FE
00
00
00
ENDCHAR
STARTCHAR char1
ENCODING 1
SWIDTH 636 0
DWIDTH 7 0
BBX 7 13 0 -3
BITMAP
00
10
38
7C
FE
7C
38
10
00
00
00
00
00
ENDCHAR
STARTCHAR char2
ENCODING 2
SWIDTH 636 0
DWIDTH 7 0
BBX 7 13 0 -3
BITMAP
AA
54
AA
54
AA
54
AA
54
AA
54
00
00
00
ENDCHAR
STARTCHAR char11
ENCODING 11
SWIDTH 636 0
DWIDTH 7 0
BBX 7 13 0 -3
BITMAP
10
10
10
10
10
E0
00
00
00
00
00
00
00
ENDCHAR
STARTCHAR char12
ENCODING 12
SWIDTH 636 0
DWIDTH 7 0
BBX 7 13 0 -3
BITMAP
00
00
00
00
00
E0
10
10
10
10
10
10
10
ENDCHAR
STARTCHAR char13
ENCODING 13
SWIDTH 636 0
DWIDTH 7 0
BBX 7 13 0 -3
BITMAP
00
00
00
00
00
0E
10
10
10
10
10
10
10
ENDCHAR
STARTCHAR char14
ENCODING 14
SWIDTH 636 0
DWIDTH 7 0
BBX 7 13 0 -3
BITMAP
10
10
10
10
10
0E
00
00
00
00
00
00
00
ENDCHAR
STARTCHAR char15
ENCODING 15
SWIDTH 636 0
DWIDTH 7 0
BBX 7 13 0 -3
BITMAP
10
10
10
10
10
EE
10
10
10
10
10
10
10
ENDCHAR
STARTCHAR char16
ENCODING 16
SWIDTH 636 0
DWIDTH 7 0
BBX 7 13 0 -3
BITMAP
FE
00
00
00
00
00
00
00
00
00
00
00
00
ENDCHAR
STARTCHAR char17
ENCODING 17
SWIDTH 636 0
DWIDTH 7 0
BBX 7 13 0 -3
BITMAP
00
00
FE
00
00
00
00
00
00
00
00
00
00
ENDCHAR
STARTCHAR char18
ENCODING 18
SWIDTH 636 0
DWIDTH 7 0
BBX 7 13 0 -3
BITMAP
00
00
00
00
00
FE
00
00
00
00
00
00
00
ENDCHAR
STARTCHAR char19
ENCODING 19
SWIDTH 636 0
DWIDTH 7 0
BBX 7 13 0 -3
BITMAP
00
00
00
00
00
00
00
FE
00
00
00
00
00
ENDCHAR
STARTCHAR char20
ENCODING 20
SWIDTH 636 0
DWIDTH 7 0
BBX 7 13 0 -3
BITMAP
00
00
00
00
00
00
00
00
00
FE
00
00
00
ENDCHAR
STARTCHAR char21
ENCODING 21
SWIDTH 636 0
DWIDTH 7 0
BBX 7 13 0 -3
BITMAP
10
10
10
10
10
0E
10
10
10
10
10
10
10
ENDCHAR
STARTCHAR char22
ENCODING 22
SWIDTH 636 0
DWIDTH 7 0
BBX 7 13 0 -3
BITMAP
10
10
10
10
10
E0
10
10
10
10
10
10
10
ENDCHAR
STARTCHAR char23
ENCODING 23
SWIDTH 636 0
DWIDTH 7 0
BBX 7 13 0 -3
BITMAP
10
10
10
10
10
EE
00
00
00
00
00
00
00
ENDCHAR
STARTCHAR char24
ENCODING 24
SWIDTH 636 0
DWIDTH 7 0
BBX 7 13 0 -3
BITMAP
00
00
00
00
00
EE
10
10
10
10
10
10
10
ENDCHAR
STARTCHAR char25
ENCODING 25
SWIDTH 636 0
DWIDTH 7 0
BBX 7 13 0 -3
BITMAP
10
10
10
10
10
10
10
10
10
10
10
10
10
ENDCHAR
STARTCHAR space
ENCODING 32
SWIDTH 636 0
DWIDTH 7 0
BBX 7 13 0 -3
BITMAP
00
00
00
00
00
00
00
00
00
00
00
00
00
ENDCHAR
STARTCHAR exclam
ENCODING 33
SWIDTH 636 0
DWIDTH 7 0
BBX 7 13 0 -3
BITMAP
00
00
10
10
10
10
10
10
00
10
00
00
00
ENDCHAR
STARTCHAR char34
ENCODING 34
SWIDTH 636 0
DWIDTH 7 0
BBX 7 13 0 -3
BITMAP
00
00
D8
48
90
00
00
00
00
00
00
00
00
ENDCHAR
STARTCHAR hash
ENCODING 35
SWIDTH 636 0
DWIDTH 7 0
BBX 7 13 0 -3
BITMAP
00
00
00
14
14
7E
28
FC
50
50
00
00
00
ENDCHAR
STARTCHAR dolar
ENCODING 36
SWIDTH 636 0
DWIDTH 7 0
BBX 7 13 0 -3
BITMAP
00
00
20
70
A0
70
28
A8
70
20
00
00
00
ENDCHAR
STARTCHAR char37
ENCODING 37
SWIDTH 636 0
DWIDTH 7 0
BBX 7 13 0 -3
BITMAP
00
00
00
40
A8
50
20
50
A8
10
00
00
00
ENDCHAR
STARTCHAR amp
ENCODING 38
SWIDTH 636 0
DWIDTH 7 0
BBX 7 13 0 -3
BITMAP
00
00
00
20
50
20
50
8C
88
74
00
00
00
ENDCHAR
STARTCHAR char39
ENCODING 39
SWIDTH 636 0
DWIDTH 7 0
BBX 7 13 0 -3
BITMAP
00
00
30
10
20
00
00
00
00
00
00
00
00
ENDCHAR
STARTCHAR char40
ENCODING 40
SWIDTH 636 0
DWIDTH 7 0
BBX 7 13 0 -3
BITMAP
00
00
10
20
20
20
20
20
20
10
00
00
00
ENDCHAR
STARTCHAR char41
ENCODING 41
SWIDTH 636 0
DWIDTH 7 0
BBX 7 13 0 -3
BITMAP
00
00
20
10
10
10
10
10
10
20
00
00
00
ENDCHAR
STARTCHAR asterisk
ENCODING 42
SWIDTH 636 0
DWIDTH 7 0
BBX 7 13 0 -3
BITMAP
00
00
00
00
10
54
38
54
10
00
00
00
00
ENDCHAR
STARTCHAR plus
ENCODING 43
SWIDTH 636 0
DWIDTH 7 0
BBX 7 13 0 -3
BITMAP
00
00
00
10
10
10
7C
10
10
10
00
00
00
ENDCHAR
STARTCHAR char44
ENCODING 44
SWIDTH 636 0
DWIDTH 7 0
BBX 7 13 0 -3
BITMAP
00
00
00
00
00
00
00
00
30
10
20
00
00
ENDCHAR
STARTCHAR char45
ENCODING 45
SWIDTH 636 0
DWIDTH 7 0
BBX 7 13 0 -3
BITMAP
00
00
00
00
00
00
7C
00
00
00
00
00
00
ENDCHAR
STARTCHAR char46
ENCODING 46
SWIDTH 636 0
DWIDTH 7 0
BBX 7 13 0 -3
BITMAP
00
00
00
00
00
00
00
00
00
20
00
00
00
ENDCHAR
STARTCHAR char47
ENCODING 47
SWIDTH 636 0
DWIDTH 7 0
BBX 7 13 0 -3
BITMAP
00
00
08
10
10
20
20
40
40
80
00
00
00
ENDCHAR
STARTCHAR char48
ENCODING 48
SWIDTH 636 0
DWIDTH 7 0
BBX 7 13 0 -3
BITMAP
00
00
30
48
48
58
68
48
48
30
00
00
00
ENDCHAR
STARTCHAR char49
ENCODING 49
SWIDTH 636 0
DWIDTH 7 0
BBX 7 13 0 -3
BITMAP
00
00
10
30
10
10
10
10
10
38
00
00
00
ENDCHAR
STARTCHAR char50
ENCODING 50
SWIDTH 636 0
DWIDTH 7 0
BBX 7 13 0 -3
BITMAP
00
00
30
48
48
08
10
20
40
78
00
00
00
ENDCHAR
STARTCHAR char51
ENCODING 51
SWIDTH 636 0
DWIDTH 7 0
BBX 7 13 0 -3
BITMAP
00
00
30
48
08
10
08
08
48
30
00
00
00
ENDCHAR
STARTCHAR char52
ENCODING 52
SWIDTH 636 0
DWIDTH 7 0
BBX 7 13 0 -3
BITMAP
00
00
10
30
30
50
50
78
10
10
00
00
00
ENDCHAR
STARTCHAR char53
ENCODING 53
SWIDTH 636 0
DWIDTH 7 0
BBX 7 13 0 -3
BITMAP
00
00
78
40
40
70
08
08
48
30
00
00
00
ENDCHAR
STARTCHAR char54
ENCODING 54
SWIDTH 636 0
DWIDTH 7 0
BBX 7 13 0 -3
BITMAP
00
00
30
48
40
70
48
48
48
30
00
00
00
ENDCHAR
STARTCHAR char55
ENCODING 55
SWIDTH 636 0
DWIDTH 7 0
BBX 7 13 0 -3
BITMAP
00
00
78
08
08
10
10
20
20
20
00
00
00
ENDCHAR
STARTCHAR char56
ENCODING 56
SWIDTH 636 0
DWIDTH 7 0
BBX 7 13 0 -3
BITMAP
00
00
30
48
48
30
48
48
48
30
00
00
00
ENDCHAR
STARTCHAR char57
ENCODING 57
SWIDTH 636 0
DWIDTH 7 0
BBX 7 13 0 -3
BITMAP
00
00
30
48
48
48
38
08
48
30
00
00
00
ENDCHAR
STARTCHAR char58
ENCODING 58
SWIDTH 636 0
DWIDTH 7 0
BBX 7 13 0 -3
BITMAP
00
00
00
00
10
00
00
00
10
00
00
00
00
ENDCHAR
STARTCHAR char59
ENCODING 59
SWIDTH 636 0
DWIDTH 7 0
BBX 7 13 0 -3
BITMAP
00
00
00
00
10
00
00
00
10
10
00
00
00
ENDCHAR
STARTCHAR char60
ENCODING 60
SWIDTH 636 0
DWIDTH 7 0
BBX 7 13 0 -3
BITMAP
00
00
00
00
10
20
40
20
10
00
00
00
00
ENDCHAR
STARTCHAR char61
ENCODING 61
SWIDTH 636 0
DWIDTH 7 0
BBX 7 13 0 -3
BITMAP
00
00
00
00
00
F8
00
00
F8
00
00
00
00
ENDCHAR
STARTCHAR char62
ENCODING 62
SWIDTH 636 0
DWIDTH 7 0
BBX 7 13 0 -3
BITMAP
00
00
00
00
40
20
10
20
40
00
00
00
00
ENDCHAR
STARTCHAR char63
ENCODING 63
SWIDTH 636 0
DWIDTH 7 0
BBX 7 13 0 -3
BITMAP
00
00
70
88
88
10
20
20
00
20
00
00
00
ENDCHAR
STARTCHAR char64
ENCODING 64
SWIDTH 636 0
DWIDTH 7 0
BBX 7 13 0 -3
BITMAP
00
00
78
84
9C
A4
A4
98
80
7C
00
00
00
ENDCHAR
STARTCHAR A
ENCODING 65
SWIDTH 636 0
DWIDTH 7 0
BBX 7 13 0 -3
BITMAP
00
00
20
50
50
88
F8
88
88
88
00
00
00
ENDCHAR
STARTCHAR B
ENCODING 66
SWIDTH 636 0
DWIDTH 7 0
BBX 7 13 0 -3
BITMAP
00
00
F0
88
88
F0
88
88
88
F0
00
00
00
ENDCHAR
STARTCHAR C
ENCODING 67
SWIDTH 636 0
DWIDTH 7 0
BBX 7 13 0 -3
BITMAP
00
00
70
88
80
80
80
80
88
70
00
00
00
ENDCHAR
STARTCHAR D
ENCODING 68
SWIDTH 636 0
DWIDTH 7 0
BBX 7 13 0 -3
BITMAP
00
00
F0
88
88
88
88
88
88
F0
00
00
00
ENDCHAR
STARTCHAR E
ENCODING 69
SWIDTH 636 0
DWIDTH 7 0
BBX 7 13 0 -3
BITMAP
00
00
F8
80
80
E0
80
80
80
F8
00
00
00
ENDCHAR
STARTCHAR F
ENCODING 70
SWIDTH 636 0
DWIDTH 7 0
BBX 7 13 0 -3
BITMAP
00
00
F8
80
80
E0
80
80
80
80
00
00
00
ENDCHAR
STARTCHAR G
ENCODING 71
SWIDTH 636 0
DWIDTH 7 0
BBX 7 13 0 -3
BITMAP
00
00
70
88
80
80
80
98
88
70
00
00
00
ENDCHAR
STARTCHAR char72
ENCODING 72
SWIDTH 636 0
DWIDTH 7 0
BBX 7 13 0 -3
BITMAP
00
00
88
88
88
F8
88
88
88
88
00
00
00
ENDCHAR
STARTCHAR I
ENCODING 73
SWIDTH 636 0
DWIDTH 7 0
BBX 7 13 0 -3
BITMAP
00
00
70
20
20
20
20
20
20
70
00
00
00
ENDCHAR
STARTCHAR J
ENCODING 74
SWIDTH 636 0
DWIDTH 7 0
BBX 7 13 0 -3
BITMAP
00
00
F8
08
08
08
08
88
88
70
00
00
00
ENDCHAR
STARTCHAR K
ENCODING 75
SWIDTH 636 0
DWIDTH 7 0
BBX 7 13 0 -3
BITMAP
00
00
88
90
A0
C0
C0
A0
90
88
00
00
00
ENDCHAR
STARTCHAR L
ENCODING 76
SWIDTH 636 0
DWIDTH 7 0
BBX 7 13 0 -3
BITMAP
00
00
80
80
80
80
80
80
80
F8
00
00
00
ENDCHAR
STARTCHAR M
ENCODING 77
SWIDTH 636 0
DWIDTH 7 0
BBX 7 13 0 -3
BITMAP
00
00
88
D8
A8
88
88
88
88
88
00
00
00
ENDCHAR
STARTCHAR N
ENCODING 78
SWIDTH 636 0
DWIDTH 7 0
BBX 7 13 0 -3
BITMAP
00
00
88
C8
C8
A8
98
98
88
88
00
00
00
ENDCHAR
STARTCHAR O
ENCODING 79
SWIDTH 636 0
DWIDTH 7 0
BBX 7 13 0 -3
BITMAP
00
00
70
88
88
88
88
88
88
70
00
00
00
ENDCHAR
STARTCHAR P
ENCODING 80
SWIDTH 636 0
DWIDTH 7 0
BBX 7 13 0 -3
BITMAP
00
00
F0
88
88
F0
80
80
80
80
00
00
00
ENDCHAR
STARTCHAR Q
ENCODING 81
SWIDTH 636 0
DWIDTH 7 0
BBX 7 13 0 -3
BITMAP
00
00
70
88
88
88
88
A8
90
68
00
00
00
ENDCHAR
STARTCHAR R
ENCODING 82
SWIDTH 636 0
DWIDTH 7 0
BBX 7 13 0 -3
BITMAP
00
00
F0
88
88
F0
C0
A0
90
88
00
00
00
ENDCHAR
STARTCHAR S
ENCODING 83
SWIDTH 636 0
DWIDTH 7 0
BBX 7 13 0 -3
BITMAP
00
00
78
84
80
78
04
04
84
78
00
00
00
ENDCHAR
STARTCHAR T
ENCODING 84
SWIDTH 636 0
DWIDTH 7 0
BBX 7 13 0 -3
BITMAP
00
00
F8
20
20
20
20
20
20
20
00
00
00
ENDCHAR
STARTCHAR U
ENCODING 85
SWIDTH 636 0
DWIDTH 7 0
BBX 7 13 0 -3
BITMAP
00
00
88
88
88
88
88
88
88
70
00
00
00
ENDCHAR
STARTCHAR V
ENCODING 86
SWIDTH 636 0
DWIDTH 7 0
BBX 7 13 0 -3
BITMAP
00
00
88
88
88
50
50
50
20
20
00
00
00
ENDCHAR
STARTCHAR W
ENCODING 87
SWIDTH 636 0
DWIDTH 7 0
BBX 7 13 0 -3
BITMAP
00
00
88
88
88
88
A8
A8
A8
50
00
00
00
ENDCHAR
STARTCHAR X
ENCODING 88
SWIDTH 636 0
DWIDTH 7 0
BBX 7 13 0 -3
BITMAP
00
00
88
88
50
20
20
50
88
88
00
00
00
ENDCHAR
STARTCHAR Y
ENCODING 89
SWIDTH 636 0
DWIDTH 7 0
BBX 7 13 0 -3
BITMAP
00
00
88
88
50
50
20
20
20
20
00
00
00
ENDCHAR
STARTCHAR Z
ENCODING 90
SWIDTH 636 0
DWIDTH 7 0
BBX 7 13 0 -3
BITMAP
00
00
F8
08
08
10
20
40
80
F8
00
00
00
ENDCHAR
STARTCHAR bracketleft
ENCODING 91
SWIDTH 636 0
DWIDTH 7 0
BBX 7 13 0 -3
BITMAP
00
00
30
20
20
20
20
20
20
30
00
00
00
ENDCHAR
STARTCHAR backslash
ENCODING 92
SWIDTH 636 0
DWIDTH 7 0
BBX 7 13 0 -3
BITMAP
00
00
80
40
40
20
20
10
10
08
00
00
00
ENDCHAR
STARTCHAR char93
ENCODING 93
SWIDTH 636 0
DWIDTH 7 0
BBX 7 13 0 -3
BITMAP
00
00
30
10
10
10
10
10
10
30
00
00
00
ENDCHAR
STARTCHAR char
ENCODING 94
SWIDTH 636 0
DWIDTH 7 0
BBX 7 13 0 -3
BITMAP
00
00
10
28
44
00
00
00
00
00
00
00
00
ENDCHAR
STARTCHAR underscore
ENCODING 95
SWIDTH 636 0
DWIDTH 7 0
BBX 7 13 0 -3
BITMAP
00
00
00
00
00
00
00
00
00
FE
00
00
00
ENDCHAR
STARTCHAR char96
ENCODING 96
SWIDTH 636 0
DWIDTH 7 0
BBX 7 13 0 -3
BITMAP
00
00
20
20
10
00
00
00
00
00
00
00
00
ENDCHAR
STARTCHAR a
ENCODING 97
SWIDTH 636 0
DWIDTH 7 0
BBX 7 13 0 -3
BITMAP
00
00
00
00
70
08
78
88
88
74
00
00
00
ENDCHAR
STARTCHAR b
ENCODING 98
SWIDTH 636 0
DWIDTH 7 0
BBX 7 13 0 -3
BITMAP
00
00
80
80
B0
C8
88
88
C8
B0
00
00
00
ENDCHAR
STARTCHAR c
ENCODING 99
SWIDTH 636 0
DWIDTH 7 0
BBX 7 13 0 -3
BITMAP
00
00
00
00
70
88
80
80
88
70
00
00
00
ENDCHAR
STARTCHAR d
ENCODING 100
SWIDTH 636 0
DWIDTH 7 0
BBX 7 13 0 -3
BITMAP
00
00
08
08
68
98
88
88
98
68
00
00
00
ENDCHAR
STARTCHAR e
ENCODING 101
SWIDTH 636 0
DWIDTH 7 0
BBX 7 13 0 -3
BITMAP
00
00
00
00
70
88
F8
80
88
70
00
00
00
ENDCHAR
STARTCHAR f
ENCODING 102
SWIDTH 636 0
DWIDTH 7 0
BBX 7 13 0 -3
BITMAP
00
00
30
48
40
E0
40
40
40
40
00
00
00
ENDCHAR
STARTCHAR g
ENCODING 103
SWIDTH 636 0
DWIDTH 7 0
BBX 7 13 0 -3
BITMAP
00
00
00
00
74
88
88
88
70
40
B8
84
78
ENDCHAR
STARTCHAR h
ENCODING 104
SWIDTH 636 0
DWIDTH 7 0
BBX 7 13 0 -3
BITMAP
00
00
80
80
B0
C8
88
88
88
88
00
00
00
ENDCHAR
STARTCHAR char105
ENCODING 105
SWIDTH 636 0
DWIDTH 7 0
BBX 7 13 0 -3
BITMAP
00
00
20
00
60
20
20
20
20
F8
00
00
00
ENDCHAR
STARTCHAR j
ENCODING 106
SWIDTH 636 0
DWIDTH 7 0
BBX 7 13 0 -3
BITMAP
00
00
00
08
00
18
08
08
08
08
08
88
70
ENDCHAR
STARTCHAR k
ENCODING 107
SWIDTH 636 0
DWIDTH 7 0
BBX 7 13 0 -3
BITMAP
00
00
80
80
88
90
E0
A0
90
88
00
00
00
ENDCHAR
STARTCHAR l
ENCODING 108
SWIDTH 636 0
DWIDTH 7 0
BBX 7 13 0 -3
BITMAP
00
00
60
20
20
20
20
20
20
F8
00
00
00
ENDCHAR
STARTCHAR m
ENCODING 109
SWIDTH 636 0
DWIDTH 7 0
BBX 7 13 0 -3
BITMAP
00
00
00
00
D0
A8
A8
A8
A8
A8
00
00
00
ENDCHAR
STARTCHAR n
ENCODING 110
SWIDTH 636 0
DWIDTH 7 0
BBX 7 13 0 -3
BITMAP
00
00
00
00
F0
88
88
88
88
88
00
00
00
ENDCHAR
STARTCHAR o
ENCODING 111
SWIDTH 636 0
DWIDTH 7 0
BBX 7 13 0 -3
BITMAP
00
00
00
00
70
88
88
88
88
70
00
00
00
ENDCHAR
STARTCHAR p
ENCODING 112
SWIDTH 636 0
DWIDTH 7 0
BBX 7 13 0 -3
BITMAP
00
00
00
00
B0
C8
88
88
C8
B0
80
80
80
ENDCHAR
STARTCHAR q
ENCODING 113
SWIDTH 636 0
DWIDTH 7 0
BBX 7 13 0 -3
BITMAP
00
00
00
00
68
98
88
88
98
68
08
08
08
ENDCHAR
STARTCHAR r
ENCODING 114
SWIDTH 636 0
DWIDTH 7 0
BBX 7 13 0 -3
BITMAP
00
00
00
00
B0
C8
80
80
80
80
00
00
00
ENDCHAR
STARTCHAR s
ENCODING 115
SWIDTH 636 0
DWIDTH 7 0
BBX 7 13 0 -3
BITMAP
00
00
00
00
70
80
70
08
88
70
00
00
00
ENDCHAR
STARTCHAR t
ENCODING 116
SWIDTH 636 0
DWIDTH 7 0
BBX 7 13 0 -3
BITMAP
00
00
40
40
E0
40
40
40
48
30
00
00
00
ENDCHAR
STARTCHAR u
ENCODING 117
SWIDTH 636 0
DWIDTH 7 0
BBX 7 13 0 -3
BITMAP
00
00
00
00
88
88
88
88
98
68
00
00
00
ENDCHAR
STARTCHAR v
ENCODING 118
SWIDTH 636 0
DWIDTH 7 0
BBX 7 13 0 -3
BITMAP
00
00
00
00
88
88
88
50
50
20
00
00
00
ENDCHAR
STARTCHAR w
ENCODING 119
SWIDTH 636 0
DWIDTH 7 0
BBX 7 13 0 -3
BITMAP
00
00
00
00
88
A8
A8
A8
A8
50
00
00
00
ENDCHAR
STARTCHAR x
ENCODING 120
SWIDTH 636 0
DWIDTH 7 0
BBX 7 13 0 -3
BITMAP
00
00
00
00
88
50
20
20
50
88
00
00
00
ENDCHAR
STARTCHAR y
ENCODING 121
SWIDTH 636 0
DWIDTH 7 0
BBX 7 13 0 -3
BITMAP
00
00
00
00
88
88
88
88
98
68
08
10
60
ENDCHAR
STARTCHAR z
ENCODING 122
SWIDTH 636 0
DWIDTH 7 0
BBX 7 13 0 -3
BITMAP
00
00
00
00
F8
10
20
40
80
F8
00
00
00
ENDCHAR
STARTCHAR braceleft
ENCODING 123
SWIDTH 636 0
DWIDTH 7 0
BBX 7 13 0 -3
BITMAP
00
00
00
18
20
10
20
10
20
18
00
00
00
ENDCHAR
STARTCHAR bar
ENCODING 124
SWIDTH 636 0
DWIDTH 7 0
BBX 7 13 0 -3
BITMAP
00
00
10
10
10
10
10
10
10
10
00
00
00
ENDCHAR
STARTCHAR braceright
ENCODING 125
SWIDTH 636 0
DWIDTH 7 0
BBX 7 13 0 -3
BITMAP
00
00
00
30
08
10
08
10
08
30
00
00
00
ENDCHAR
STARTCHAR tilda
ENCODING 126
SWIDTH 636 0
DWIDTH 7 0
BBX 7 13 0 -3
BITMAP
00
00
00
00
40
A8
10
00
00
00
00
00
00
ENDCHAR
STARTCHAR Aogonek
ENCODING 161
SWIDTH 636 0
DWIDTH 7 0
BBX 7 13 0 -3
BITMAP
00
00
30
48
48
84
84
FC
84
84
84
00
00
ENDCHAR
STARTCHAR Lslash
ENCODING 163
SWIDTH 636 0
DWIDTH 7 0
BBX 7 13 0 -3
BITMAP
00
00
40
40
50
60
40
C0
40
40
7E
00
00
ENDCHAR
STARTCHAR currency
ENCODING 164
SWIDTH 636 0
DWIDTH 7 0
BBX 7 13 0 -3
BITMAP
00
00
2D
12
21
21
12
2D
00
00
00
00
00
ENDCHAR
STARTCHAR Lcaron
ENCODING 165
SWIDTH 636 0
DWIDTH 7 0
BBX 7 13 0 -3
BITMAP
30
10
A0
80
80
80
80
80
80
80
FC
00
00
ENDCHAR
STARTCHAR Sacute
ENCODING 166
SWIDTH 636 0
DWIDTH 7 0
BBX 7 13 0 -3
BITMAP
10
20
00
78
84
80
78
04
04
84
78
00
00
ENDCHAR
STARTCHAR section
ENCODING 167
SWIDTH 636 0
DWIDTH 7 0
BBX 7 13 0 -3
BITMAP
00
00
0E
11
08
14
12
09
05
02
11
0E
00
ENDCHAR
STARTCHAR Scaron
ENCODING 169
SWIDTH 636 0
DWIDTH 7 0
BBX 7 13 0 -3
BITMAP
48
30
00
78
84
80
78
04
04
84
78
00
00
ENDCHAR
STARTCHAR Scedilla
ENCODING 170
SWIDTH 636 0
DWIDTH 7 0
BBX 7 13 0 -3
BITMAP
00
00
78
84
80
80
78
04
04
84
78
20
20
ENDCHAR
STARTCHAR Tcaron
ENCODING 171
SWIDTH 636 0
DWIDTH 7 0
BBX 7 13 0 -3
BITMAP
28
10
00
7C
10
10
10
10
10
10
10
00
00
ENDCHAR
STARTCHAR Zacute
ENCODING 172
SWIDTH 636 0
DWIDTH 7 0
BBX 7 13 0 -3
BITMAP
08
10
00
7C
04
08
10
20
40
40
7C
00
00
ENDCHAR
STARTCHAR Zcaron
ENCODING 174
SWIDTH 636 0
DWIDTH 7 0
BBX 7 13 0 -3
BITMAP
28
10
00
7C
04
08
10
20
40
40
7C
00
00
ENDCHAR
STARTCHAR Zdotaccent
ENCODING 175
SWIDTH 636 0
DWIDTH 7 0
BBX 7 13 0 -3
BITMAP
00
10
00
7C
04
08
10
20
40
40
7C
00
00
ENDCHAR
STARTCHAR degree
ENCODING 176
SWIDTH 636 0
DWIDTH 7 0
BBX 7 13 0 -3
BITMAP
30
48
48
30
00
00
00
00
00
00
00
00
00
ENDCHAR
STARTCHAR aogonek
ENCODING 177
SWIDTH 636 0
DWIDTH 7 0
BBX 7 13 0 -3
BITMAP
00
00
00
00
78
84
04
7C
84
84
7A
20
20
ENDCHAR
STARTCHAR lslash
ENCODING 179
SWIDTH 636 0
DWIDTH 7 0
BBX 7 13 0 -3
BITMAP
00
00
30
14
18
10
30
50
10
10
7C
00
00
ENDCHAR
STARTCHAR acute
ENCODING 180
SWIDTH 636 0
DWIDTH 7 0
BBX 7 13 0 -3
BITMAP
08
10
00
00
00
00
00
00
00
00
00
00
00
ENDCHAR
STARTCHAR lcaron
ENCODING 181
SWIDTH 636 0
DWIDTH 7 0
BBX 7 13 0 -3
BITMAP
0C
04
38
10
10
10
10
10
10
10
7C
00
00
ENDCHAR
STARTCHAR sacute
ENCODING 182
SWIDTH 636 0
DWIDTH 7 0
BBX 7 13 0 -3
BITMAP
00
10
20
00
78
84
80
78
04
84
78
00
00
ENDCHAR
STARTCHAR caron
ENCODING 183
SWIDTH 636 0
DWIDTH 7 0
BBX 7 13 0 -3
BITMAP
24
18
00
00
00
00
00
00
00
00
00
00
00
ENDCHAR
STARTCHAR scaron
ENCODING 185
SWIDTH 636 0
DWIDTH 7 0
BBX 7 13 0 -3
BITMAP
00
48
30
00
78
84
80
78
04
84
78
00
00
ENDCHAR
STARTCHAR scedilla
ENCODING 186
SWIDTH 636 0
DWIDTH 7 0
BBX 7 13 0 -3
BITMAP
00
00
00
00
78
84
80
78
04
84
78
20
20
ENDCHAR
STARTCHAR tcaron
ENCODING 187
SWIDTH 636 0
DWIDTH 7 0
BBX 7 13 0 -3
BITMAP
00
0C
44
48
F0
40
40
40
40
44
38
00
00
ENDCHAR
STARTCHAR zacute
ENCODING 188
SWIDTH 636 0
DWIDTH 7 0
BBX 7 13 0 -3
BITMAP
00
10
20
00
FC
04
08
30
40
80
FC
00
00
ENDCHAR
STARTCHAR zcaron
ENCODING 190
SWIDTH 636 0
DWIDTH 7 0
BBX 7 13 0 -3
BITMAP
00
48
30
00
FC
04
08
30
40
80
FC
00
00
ENDCHAR
STARTCHAR zdotaccent
ENCODING 191
SWIDTH 636 0
DWIDTH 7 0
BBX 7 13 0 -3
BITMAP
00
00
30
00
FC
04
08
30
40
80
FC
00
00
ENDCHAR
STARTCHAR Racute
ENCODING 192
SWIDTH 636 0
DWIDTH 7 0
BBX 7 13 0 -3
BITMAP
10
20
00
F8
84
84
84
F8
90
88
84
00
00
ENDCHAR
STARTCHAR Aacute
ENCODING 193
SWIDTH 636 0
DWIDTH 7 0
BBX 7 13 0 -3
BITMAP
10
20
00
30
48
48
84
FC
84
84
84
00
00
ENDCHAR
STARTCHAR Acircumflex
ENCODING 194
SWIDTH 636 0
DWIDTH 7 0
BBX 7 13 0 -3
BITMAP
30
48
00
30
48
48
84
FC
84
84
84
00
00
ENDCHAR
STARTCHAR Abreve
ENCODING 195
SWIDTH 636 0
DWIDTH 7 0
BBX 7 13 0 -3
BITMAP
48
30
00
30
48
48
84
FC
84
84
84
00
00
ENDCHAR
STARTCHAR Adieresis
ENCODING 196
SWIDTH 636 0
DWIDTH 7 0
BBX 7 13 0 -3
BITMAP
48
00
30
48
48
84
84
FC
84
84
84
00
00
ENDCHAR
STARTCHAR Lacute
ENCODING 197
SWIDTH 636 0
DWIDTH 7 0
BBX 7 13 0 -3
BITMAP
20
40
00
80
80
80
80
80
80
80
FC
00
00
ENDCHAR
STARTCHAR Cacute
ENCODING 198
SWIDTH 636 0
DWIDTH 7 0
BBX 7 13 0 -3
BITMAP
10
20
00
78
84
80
80
80
80
84
78
00
00
ENDCHAR
STARTCHAR Ccedilla
ENCODING 199
SWIDTH 636 0
DWIDTH 7 0
BBX 7 13 0 -3
BITMAP
00
00
78
84
80
80
80
80
80
84
78
20
20
ENDCHAR
STARTCHAR Ccaron
ENCODING 200
SWIDTH 636 0
DWIDTH 7 0
BBX 7 13 0 -3
BITMAP
48
30
00
78
84
80
80
80
80
84
78
00
00
ENDCHAR
STARTCHAR Eacute
ENCODING 201
SWIDTH 636 0
DWIDTH 7 0
BBX 7 13 0 -3
BITMAP
10
20
00
FC
80
80
F0
80
80
80
FC
00
00
ENDCHAR
STARTCHAR Eogonek
ENCODING 202
SWIDTH 636 0
DWIDTH 7 0
BBX 7 13 0 -3
BITMAP
00
00
FC
80
80
80
F0
80
80
80
FC
20
20
ENDCHAR
STARTCHAR Edieresis
ENCODING 203
SWIDTH 636 0
DWIDTH 7 0
BBX 7 13 0 -3
BITMAP
00
48
00
FC
80
80
F0
80
80
80
FC
00
00
ENDCHAR
STARTCHAR Ecaron
ENCODING 204
SWIDTH 636 0
DWIDTH 7 0
BBX 7 13 0 -3
BITMAP
48
30
00
FC
80
80
F0
80
80
80
FC
00
00
ENDCHAR
STARTCHAR Iacute
ENCODING 205
SWIDTH 636 0
DWIDTH 7 0
BBX 7 13 0 -3
BITMAP
08
10
00
38
10
10
10
10
10
10
38
00
00
ENDCHAR
STARTCHAR Icircumflex
ENCODING 206
SWIDTH 636 0
DWIDTH 7 0
BBX 7 13 0 -3
BITMAP
10
28
00
38
10
10
10
10
10
10
38
00
00
ENDCHAR
STARTCHAR Dcaron
ENCODING 207
SWIDTH 636 0
DWIDTH 7 0
BBX 7 13 0 -3
BITMAP
48
30
00
F8
84
84
84
84
84
84
F8
00
00
ENDCHAR
STARTCHAR Dcroat
ENCODING 208
SWIDTH 636 0
DWIDTH 7 0
BBX 7 13 0 -3
BITMAP
00
00
F8
84
84
84
E4
84
84
84
F8
00
00
ENDCHAR
STARTCHAR Nacute
ENCODING 209
SWIDTH 636 0
DWIDTH 7 0
BBX 7 13 0 -3
BITMAP
08
10
00
84
C4
C4
A4
94
8C
8C
84
00
00
ENDCHAR
STARTCHAR Ncaron
ENCODING 210
SWIDTH 636 0
DWIDTH 7 0
BBX 7 13 0 -3
BITMAP
48
30
00
84
C4
C4
A4
94
8C
8C
84
00
00
ENDCHAR
STARTCHAR Oacute
ENCODING 211
SWIDTH 636 0
DWIDTH 7 0
BBX 7 13 0 -3
BITMAP
10
20
00
78
84
84
84
84
84
84
78
00
00
ENDCHAR
STARTCHAR Ocircumflex
ENCODING 212
SWIDTH 636 0
DWIDTH 7 0
BBX 7 13 0 -3
BITMAP
30
48
00
78
84
84
84
84
84
84
78
00
00
ENDCHAR
STARTCHAR Ohungarumlaut
ENCODING 213
SWIDTH 636 0
DWIDTH 7 0
BBX 7 13 0 -3
BITMAP
24
48
00
78
84
84
84
84
84
84
78
00
00
ENDCHAR
STARTCHAR Odieresis
ENCODING 214
SWIDTH 636 0
DWIDTH 7 0
BBX 7 13 0 -3
BITMAP
00
48
00
78
84
84
84
84
84
84
78
00
00
ENDCHAR
STARTCHAR Rcaron
ENCODING 216
SWIDTH 636 0
DWIDTH 7 0
BBX 7 13 0 -3
BITMAP
48
30
00
F8
84
84
84
F8
90
88
84
00
00
ENDCHAR
STARTCHAR Uring
ENCODING 217
SWIDTH 636 0
DWIDTH 7 0
BBX 7 13 0 -3
BITMAP
30
48
30
84
84
84
84
84
84
84
78
00
00
ENDCHAR
STARTCHAR Uacute
ENCODING 218
SWIDTH 636 0
DWIDTH 7 0
BBX 7 13 0 -3
BITMAP
10
20
00
84
84
84
84
84
84
84
78
00
00
ENDCHAR
STARTCHAR Uhungarumlaut
ENCODING 219
SWIDTH 636 0
DWIDTH 7 0
BBX 7 13 0 -3
BITMAP
24
48
00
84
84
84
84
84
84
84
78
00
00
ENDCHAR
STARTCHAR Udieresis
ENCODING 220
SWIDTH 636 0
DWIDTH 7 0
BBX 7 13 0 -3
BITMAP
00
48
00
84
84
84
84
84
84
84
78
00
00
ENDCHAR
STARTCHAR Yacute
ENCODING 221
SWIDTH 636 0
DWIDTH 7 0
BBX 7 13 0 -3
BITMAP
08
10
00
44
44
28
28
10
10
10
10
00
00
ENDCHAR
STARTCHAR Tcommaaccent
ENCODING 222
SWIDTH 636 0
DWIDTH 7 0
BBX 7 13 0 -3
BITMAP
00
00
F8
20
20
20
20
20
20
20
20
20
20
ENDCHAR
STARTCHAR germandbls
ENCODING 223
SWIDTH 636 0
DWIDTH 7 0
BBX 7 13 0 -3
BITMAP
00
00
0E
11
11
16
11
11
16
10
10
00
00
ENDCHAR
STARTCHAR racute
ENCODING 224
SWIDTH 636 0
DWIDTH 7 0
BBX 7 13 0 -3
BITMAP
00
08
10
00
B8
C4
80
80
80
80
80
00
00
ENDCHAR
STARTCHAR aacute
ENCODING 225
SWIDTH 636 0
DWIDTH 7 0
BBX 7 13 0 -3
BITMAP
00
10
20
00
78
84
04
7C
84
84
7A
00
00
ENDCHAR
STARTCHAR acircumflex
ENCODING 226
SWIDTH 636 0
DWIDTH 7 0
BBX 7 13 0 -3
BITMAP
00
30
48
00
78
84
04
7C
84
84
7A
00
00
ENDCHAR
STARTCHAR abreve
ENCODING 227
SWIDTH 636 0
DWIDTH 7 0
BBX 7 13 0 -3
BITMAP
00
48
30
00
78
84
04
7C
84
84
7A
00
00
ENDCHAR
STARTCHAR adieresis
ENCODING 228
SWIDTH 636 0
DWIDTH 7 0
BBX 7 13 0 -3
BITMAP
00
00
48
00
78
84
04
7C
84
84
7A
00
00
ENDCHAR
STARTCHAR lacute
ENCODING 229
SWIDTH 636 0
DWIDTH 7 0
BBX 7 13 0 -3
BITMAP
28
10
00
30
10
10
10
10
10
10
7C
00
00
ENDCHAR
STARTCHAR cacute
ENCODING 230
SWIDTH 636 0
DWIDTH 7 0
BBX 7 13 0 -3
BITMAP
00
10
20
00
78
84
80
80
80
84
78
00
00
ENDCHAR
STARTCHAR ccedilla
ENCODING 231
SWIDTH 636 0
DWIDTH 7 0
BBX 7 13 0 -3
BITMAP
00
00
00
00
78
84
80
80
80
84
78
20
20
ENDCHAR
STARTCHAR ccaron
ENCODING 232
SWIDTH 636 0
DWIDTH 7 0
BBX 7 13 0 -3
BITMAP
00
48
30
00
78
84
80
80
80
84
78
00
00
ENDCHAR
STARTCHAR eacute
ENCODING 233
SWIDTH 636 0
DWIDTH 7 0
BBX 7 13 0 -3
BITMAP
00
10
20
00
78
84
84
F8
80
84
78
00
00
ENDCHAR
STARTCHAR eogonek
ENCODING 234
SWIDTH 636 0
DWIDTH 7 0
BBX 7 13 0 -3
BITMAP
00
00
00
00
78
84
84
F8
80
84
78
20
20
ENDCHAR
STARTCHAR edieresis
ENCODING 235
SWIDTH 636 0
DWIDTH 7 0
BBX 7 13 0 -3
BITMAP
00
00
48
00
78
84
84
F8
80
84
78
00
00
ENDCHAR
STARTCHAR ecaron
ENCODING 236
SWIDTH 636 0
DWIDTH 7 0
BBX 7 13 0 -3
BITMAP
00
48
30
00
78
84
84
F8
80
84
78
00
00
ENDCHAR
STARTCHAR iacute
ENCODING 237
SWIDTH 636 0
DWIDTH 7 0
BBX 7 13 0 -3
BITMAP
00
08
10
00
30
10
10
10
10
10
7C
00
00
ENDCHAR
STARTCHAR icircumflex
ENCODING 238
SWIDTH 636 0
DWIDTH 7 0
BBX 7 13 0 -3
BITMAP
00
10
28
00
30
10
10
10
10
10
7C
00
00
ENDCHAR
STARTCHAR dcaron
ENCODING 239
SWIDTH 636 0
DWIDTH 7 0
BBX 7 13 0 -3
BITMAP
06
02
06
04
74
8C
84
84
84
8C
74
00
00
ENDCHAR
STARTCHAR dcroat
ENCODING 240
SWIDTH 636 0
DWIDTH 7 0
BBX 7 13 0 -3
BITMAP
00
04
0E
04
74
8C
84
84
84
8C
74
00
00
ENDCHAR
STARTCHAR nacute
ENCODING 241
SWIDTH 636 0
DWIDTH 7 0
BBX 7 13 0 -3
BITMAP
00
10
20
00
F8
84
84
84
84
84
84
00
00
ENDCHAR
STARTCHAR ncaron
ENCODING 242
SWIDTH 636 0
DWIDTH 7 0
BBX 7 13 0 -3
BITMAP
00
48
30
00
F8
84
84
84
84
84
84
00
00
ENDCHAR
STARTCHAR oacute
ENCODING 243
SWIDTH 636 0
DWIDTH 7 0
BBX 7 13 0 -3
BITMAP
00
10
20
00
78
84
84
84
84
84
78
00
00
ENDCHAR
STARTCHAR ocircumflex
ENCODING 244
SWIDTH 636 0
DWIDTH 7 0
BBX 7 13 0 -3
BITMAP
00
30
48
00
78
84
84
84
84
84
78
00
00
ENDCHAR
STARTCHAR ohungarumlaut
ENCODING 245
SWIDTH 636 0
DWIDTH 7 0
BBX 7 13 0 -3
BITMAP
00
24
48
00
78
84
84
84
84
84
78
00
00
ENDCHAR
STARTCHAR odieresis
ENCODING 246
SWIDTH 636 0
DWIDTH 7 0
BBX 7 13 0 -3
BITMAP
00
00
48
00
78
84
84
84
84
84
78
00
00
ENDCHAR
STARTCHAR rcaron
ENCODING 248
SWIDTH 636 0
DWIDTH 7 0
BBX 7 13 0 -3
BITMAP
00
48
30
00
B8
C4
80
80
80
80
80
00
00
ENDCHAR
STARTCHAR uring
ENCODING 249
SWIDTH 636 0
DWIDTH 7 0
BBX 7 13 0 -3
BITMAP
00
30
48
30
84
84
84
84
84
8C
74
00
00
ENDCHAR
STARTCHAR uacute
ENCODING 250
SWIDTH 636 0
DWIDTH 7 0
BBX 7 13 0 -3
BITMAP
00
10
20
00
84
84
84
84
84
8C
74
00
00
ENDCHAR
STARTCHAR uhungarumlaut
ENCODING 251
SWIDTH 636 0
DWIDTH 7 0
BBX 7 13 0 -3
BITMAP
00
24
48
00
84
84
84
84
84
8C
74
00
00
ENDCHAR
STARTCHAR udieresis
ENCODING 252
SWIDTH 636 0
DWIDTH 7 0
BBX 7 13 0 -3
BITMAP
00
00
48
00
84
84
84
84
84
8C
74
00
00
ENDCHAR
STARTCHAR y.dup1
ENCODING 253
SWIDTH 636 0
DWIDTH 7 0
BBX 7 13 0 -3
BITMAP
00
10
20
00
84
84
84
84
8C
74
04
04
08
ENDCHAR
STARTCHAR tcommaaccent
ENCODING 254
SWIDTH 636 0
DWIDTH 7 0
BBX 7 13 0 -3
BITMAP
00
00
40
40
F0
40
40
40
40
44
38
10
10
ENDCHAR
ENDFONT
